<svg width="16" height="16" viewBox="0 0 16 16" fill="none" xmlns="http://www.w3.org/2000/svg">
<path d="M12.2067 1.60001H4.83281C4.58237 1.60001 4.38759 1.79479 4.38759 2.04522C4.38759 2.18435 4.44324 2.29566 4.52672 2.37914L6.5302 4.38261C5.30585 5.46783 1.88324 9.25218 5.8902 14.0939L5.94585 14.1496C5.94585 14.1774 5.97368 14.1774 6.0015 14.2052C6.08498 14.3165 6.22411 14.4 6.39107 14.4C6.6415 14.4 6.83628 14.2052 6.83628 13.9548V13.8713C6.83628 13.8435 6.83628 13.8157 6.80846 13.8157C6.66933 13.2035 5.80672 9.02957 9.47976 7.30435L11.9006 9.72522C11.9841 9.8087 12.0954 9.86435 12.2067 9.86435C12.4572 9.86435 12.6519 9.66957 12.6519 9.41914V2.07305C12.6798 1.82261 12.4572 1.60001 12.2067 1.60001Z" fill="#404041"/>
</svg>
